<svg id="Layer_1" enable-background="new 0 0 509.693 509.693" viewBox="0 0 509.693 509.693" height="512" width="512" xmlns="http://www.w3.org/2000/svg"><g><path d="m377.237 195.147c71.104-29.101 67.645-28.57 73.362-27.627 32.683 5.402 51.647 17.084 56.385 34.733 4.957 18.533-6.916 39.16-35.306 61.327-4.688 3.656-11.087 4.2-16.334 1.386l-79.521-42.724c-11.217-6.123-10.222-22.327 1.414-27.095z" fill="#dd2a49"/><path d="m415.432 215.297c96.209 27.314 111.055 82.861 19.049 117.309-3.132 1.181-6.576 1.273-9.772.269l-76.777-24.127c-10.467-3.319-13.955-16.32-6.591-24.409l58.895-64.707c3.833-4.215 9.716-5.898 15.196-4.335z" fill="#ff435b"/><path d="m312.933 130.843c29.101-71.104 28.57-67.645 27.627-73.362-5.402-32.683-17.084-51.647-34.733-56.385-18.533-4.957-39.16 6.916-61.327 35.306-3.656 4.688-4.2 11.087-1.386 16.334l42.724 79.521c6.123 11.217 22.327 10.222 27.095-1.414z" fill="#ff435b"/><path d="m293 92.864c-27.314-96.209-82.861-111.054-117.309-19.049-1.181 3.132-1.273 6.576-.269 9.772l24.127 76.777c3.319 10.467 16.32 13.955 24.409 6.591l64.707-58.895c4.214-3.832 5.897-9.716 4.335-15.196z" fill="#ff7b4a"/><path d="m425.476 152.749-63.675 11.278c-10.447 1.851-19.462-7.435-17.303-17.84l13.881-66.291c1.032-4.893 4.426-8.952 9.065-10.833 22.362-9.036 54.946-17.498 71.156.516 13.683 14.177 13.032 39.167-1.93 74.281-1.994 4.668-6.195 8.005-11.194 8.889z" fill="#fed843"/><path d="m425.476 152.749-63.675 11.278c-4.83.856-9.765-.7-13.223-4.158-.209-.209-4.43 4.162 90.022-90.29 13.683 14.177 13.032 39.167-1.93 74.281-1.994 4.668-6.195 8.005-11.194 8.889z" fill="#fabe2c"/><path d="m464.537 192.757c30.16-55.806-12.144-86.779-104.256-60.288-5.088 1.461-8.858 2.271-12.162 6.76l-38.319 51.867c-4.172 5.643-3.875 13.421.722 18.724 59.395 68.614 55.47 64.111 56.045 64.686 5.01 5.01 12.901 5.857 18.88 1.909 26.308-17.182 62.851-53.527 79.09-83.658z" fill="#ff9100"/><path d="m378.843 151.031c32.121-111.663-19.525-155.947-110.875-64.672-13.329 13.315-33.945 37.714-41.667 49.551-3.903 5.982 2.675 9.809 7.646 14.78.692.692-.427-8.664 60.042 42.584 4.823 4.087 11.696 4.709 17.169 1.556l60.74-34.945c3.381-1.939 5.863-5.114 6.945-8.854z" fill="#fabe2c"/><path d="m357.502 220.653-59.722 10.182c-10.105 1.714-18.873-6.966-17.353-17.041l9.928-65.195c.799-5.24 4.292-9.666 9.207-11.653 22.978-9.285 53.967-17.302 71.16.513 10.709 11.096 7.581 26.552 4.206 42.984-3.553 17.294-1.763 37.526-17.426 40.21z" fill="#ff7b4a"/><path d="m357.502 220.653-59.722 10.182c-5.662.961-11.292-1.398-14.574-5.862l87.512-87.512c13.683 14.177 13.032 39.167-1.93 74.281-2.009 4.696-6.252 8.048-11.286 8.911z" fill="#ff435b"/><path d="m315.947 231.852c30.702-106.792-15.062-153.901-102.439-72.782-2.772 2.574-4.469 6.109-4.752 9.886l-6.392 86.592c-.778 10.711 9.643 18.798 19.841 15.287l84.202-28.935c4.632-1.591 8.189-5.346 9.54-10.048z" fill="#ff435b"/><path d="m355.317 190.862c-33.723-.751-80.085 12.227-103.323 25.512-33.164 18.881-53.632 57.652-45.934 92.9 1.605 7.412 8.548 12.504 16.165 11.738l133.466-13.499c3.634-.368 7-2.051 9.482-4.716 66.022-71.11 44.474-110.725-9.856-111.935z" fill="#dd2a49"/><path d="m96.516 505.298-90.51-90.51c-7.227-7.227-5.269-19.43 3.896-24.02l100.388-50.198c5.777-2.892 12.749-1.76 17.317 2.807l40.319 40.319c4.568 4.568 5.699 11.54 2.807 17.317l-50.198 100.388c-4.574 9.137-16.77 11.147-24.019 3.897z" fill="#979fef"/><path d="m491.697 368.876c4.992-5.492 5.272-14.668-.615-20.556-72.59-72.59-178.139-92.609-269.485-58.612 34.327-92.278 13.284-197.589-58.612-269.485-4.9-4.9-12.688-5.957-18.936-1.867-5.291 3.558-21.048 24.414-24.473 29.89-61.888 91.127-76.978 234.846-9.497 321.581 1.465 1.883 13.148 9.437 13.615 9.804 0 0-.229 5.537 1.107 6.873 1.86 1.86 105.713 61.589 172.442 58.655 59.941-2.638 120.922-22.479 167.301-54.433 8.366-5.768 23.281-17.424 27.153-21.85z" fill="#b5baf3"/><path d="m96.516 505.298-46.818-46.818 96.506-96.506 21.722 21.722c4.568 4.568 5.699 11.54 2.807 17.317l-50.198 100.388c-4.574 9.137-16.77 11.147-24.019 3.897z" fill="#7984eb"/><g fill="#979fef"><path d="m490.657 369.944c-89.776 82.978-266.613 107.565-359.953 22.196-9.347-8.516-13.147-13.453-20.626-22.313 26.477-30.201 49.403-48.284 72.712-61.818 97.607-56.772 224.738-43.241 308.291 40.312 6.028 6.027 5.818 15.852-.424 21.623z"/><path d="m490.657 369.944c-89.925 83.116-271.84 110.563-367.413 14.991l93.267-93.267c93.341-37.043 201.289-16.627 274.569 56.654 6.029 6.026 5.819 15.851-.423 21.622z"/></g></g></svg>
